<svg width="45" height="36" viewBox="0 0 45 36" fill="none" xmlns="http://www.w3.org/2000/svg">
<circle opacity="0.1" cx="21.333" cy="16" r="16" fill="#558227"/>
<circle opacity="0.1" cx="2.83301" cy="2.5" r="2.5" fill="#558227"/>
<g clip-path="url(#clip0_70_534)">
<path d="M40.085 22.1884H37.2462C36.8599 22.1884 36.4858 22.2411 36.1299 22.3382C35.4276 20.9578 33.9939 20.0093 32.3419 20.0093H27.3241C25.6721 20.0093 24.2384 20.9578 23.5362 22.3382C23.1802 22.2411 22.8061 22.1884 22.4198 22.1884H19.5811C17.2387 22.1884 15.333 24.094 15.333 26.4364V30.9743C15.333 32.3798 16.4764 33.5232 17.8818 33.5232H41.7842C43.1896 33.5232 44.333 32.3798 44.333 30.9743V26.4364C44.333 24.094 42.4273 22.1884 40.085 22.1884ZM23.0761 24.2574V31.824H17.8818C17.4134 31.824 17.0322 31.4429 17.0322 30.9744V26.4365C17.0322 25.031 18.1756 23.8876 19.5811 23.8876H22.4198C22.6504 23.8876 22.8737 23.919 23.0864 23.9767C23.0803 24.0696 23.0761 24.1631 23.0761 24.2574ZM34.8907 31.824H24.7753V24.2574C24.7753 22.852 25.9187 21.7086 27.3241 21.7086H32.3419C33.7473 21.7086 34.8907 22.852 34.8907 24.2574V31.824ZM42.6338 30.9744C42.6338 31.4429 42.2527 31.824 41.7842 31.824H36.59V24.2574C36.59 24.163 36.5858 24.0695 36.5796 23.9766C36.7923 23.919 37.0156 23.8876 37.2462 23.8876H40.085C41.4904 23.8876 42.6338 25.031 42.6338 26.4364V30.9744Z" fill="#558227"/>
<path d="M21.0005 14.1653C18.919 14.1653 17.2256 15.8587 17.2256 17.9402C17.2255 20.0216 18.919 21.715 21.0005 21.715C23.0819 21.715 24.7753 20.0216 24.7753 17.9402C24.7753 15.8587 23.0819 14.1653 21.0005 14.1653ZM21.0004 20.0158C19.8559 20.0158 18.9247 19.0847 18.9247 17.9402C18.9247 16.7956 19.8559 15.8645 21.0004 15.8645C22.1449 15.8645 23.0761 16.7956 23.0761 17.9402C23.0761 19.0847 22.1449 20.0158 21.0004 20.0158Z" fill="#558227"/>
<path d="M29.8332 9.47681C27.0524 9.47681 24.79 11.7391 24.79 14.52C24.79 17.3008 27.0524 19.5631 29.8332 19.5631C32.614 19.5631 34.8764 17.3008 34.8764 14.52C34.8764 11.7392 32.614 9.47681 29.8332 9.47681ZM29.8332 17.8639C27.9893 17.8639 26.4893 16.3639 26.4893 14.52C26.4893 12.6762 27.9893 11.176 29.8332 11.176C31.6771 11.176 33.1772 12.6761 33.1772 14.52C33.1772 16.3639 31.6771 17.8639 29.8332 17.8639Z" fill="#558227"/>
<path d="M38.6655 14.1653C36.5841 14.1653 34.8906 15.8587 34.8906 17.9402C34.8907 20.0216 36.5841 21.715 38.6655 21.715C40.747 21.715 42.4404 20.0216 42.4404 17.9402C42.4404 15.8587 40.747 14.1653 38.6655 14.1653ZM38.6655 20.0158C37.521 20.0158 36.5898 19.0847 36.5898 17.9402C36.5899 16.7956 37.521 15.8645 38.6655 15.8645C39.81 15.8645 40.7411 16.7956 40.7411 17.9402C40.7411 19.0847 39.81 20.0158 38.6655 20.0158Z" fill="#558227"/>
</g>
<defs>
<clipPath id="clip0_70_534">
<rect width="29" height="29" fill="white" transform="translate(15.333 7)"/>
</clipPath>
</defs>
</svg>
