<svg width="45" height="36" viewBox="0 0 45 36" fill="none" xmlns="http://www.w3.org/2000/svg">
<circle opacity="0.1" cx="21.333" cy="16" r="16" fill="#558227"/>
<circle opacity="0.1" cx="2.83301" cy="2.5" r="2.5" fill="#558227"/>
<path d="M21.5421 14.6155H16.9244C16.5741 14.6155 16.29 14.8995 16.29 15.2499V34.5104C16.29 34.8607 16.5741 35.1448 16.9244 35.1448H21.5419C21.8923 35.1448 22.1763 34.8607 22.1763 34.5104V15.2499C22.1765 14.8995 21.8925 14.6155 21.5421 14.6155ZM20.9077 33.876H17.5588V15.8842H20.9076V33.876H20.9077Z" fill="#558227"/>
<path d="M28.6085 17.7395H23.9908C23.6405 17.7395 23.3564 18.0235 23.3564 18.3739V34.5104C23.3564 34.8607 23.6405 35.1448 23.9908 35.1448H28.6085C28.9589 35.1448 29.2429 34.8607 29.2429 34.5104V18.3739C29.2429 18.0235 28.9589 17.7395 28.6085 17.7395ZM27.9742 33.876H24.6252V19.0083H27.9742V33.876Z" fill="#558227"/>
<path d="M35.6748 23.7297H31.0572C30.7069 23.7297 30.4229 24.0138 30.4229 24.3641V34.5103C30.4229 34.8607 30.7069 35.1447 31.0572 35.1447H35.6749C36.0253 35.1447 36.3093 34.8607 36.3093 34.5103V24.3641C36.3091 24.0139 36.0251 23.7297 35.6748 23.7297ZM35.0404 33.8759H31.6916V24.9985H35.0406L35.0404 33.8759Z" fill="#558227"/>
<path d="M42.7413 31.5896H38.1236C37.7733 31.5896 37.4893 31.8736 37.4893 32.224V34.5103C37.4893 34.8606 37.7733 35.1446 38.1236 35.1446H42.7413C43.0917 35.1446 43.3757 34.8606 43.3757 34.5103V32.224C43.3757 31.8736 43.0915 31.5896 42.7413 31.5896ZM42.107 33.8759H38.758V32.8583H42.107V33.8759Z" fill="#558227"/>
<path d="M39.2449 27.2267C39.0222 26.9565 38.6221 26.9177 38.3519 27.1405C38.0815 27.3632 38.0429 27.7631 38.2656 28.0335L39.9806 30.1146C39.9811 30.1153 39.9821 30.1159 39.9826 30.1166C40.0103 30.1498 40.0415 30.1809 40.0769 30.2088C40.0781 30.2098 40.0794 30.2105 40.0807 30.2114C40.0881 30.2172 40.0962 30.2214 40.104 30.2268C40.1318 30.2465 40.1602 30.2639 40.1899 30.2786C40.2021 30.2846 40.2142 30.2895 40.2266 30.2948C40.2548 30.3065 40.2837 30.3161 40.3128 30.3238C40.3243 30.3267 40.3355 30.3301 40.3471 30.3323C40.3877 30.3403 40.4287 30.3455 40.4698 30.3455H40.4702H40.4705C40.5128 30.3455 40.5548 30.3399 40.5963 30.3316C40.6081 30.3292 40.6193 30.3256 40.6309 30.3227C40.6612 30.3147 40.6907 30.3047 40.7197 30.292C40.7321 30.2868 40.7444 30.2815 40.7564 30.2754C40.7866 30.26 40.8154 30.2418 40.8437 30.2212C40.8515 30.2156 40.8599 30.211 40.8675 30.2049C40.8695 30.2032 40.8716 30.2023 40.8736 30.2007C40.9086 30.1719 40.9394 30.1398 40.9666 30.1057C40.967 30.1052 40.9675 30.105 40.9679 30.1044L42.606 28.0311C42.8231 27.7562 42.7764 27.3572 42.5016 27.1401C42.2268 26.923 41.8279 26.9694 41.6106 27.2445L41.0478 27.9568C40.9258 25.0309 40.1254 22.2039 38.7039 19.6663C38.3611 19.7253 38.0095 19.758 37.6501 19.758C37.5261 19.758 37.4034 19.7533 37.2812 19.746C38.778 22.2054 39.6295 24.983 39.7733 27.8678L39.2449 27.2267Z" fill="#558227"/>
<path d="M37.6504 19.3048C40.8072 19.3048 43.3753 16.7367 43.3753 13.58C43.3753 10.4234 40.8072 7.85522 37.6504 7.85522C34.7725 7.85522 32.3847 9.99017 31.9854 12.7593C29.1111 11.0425 25.839 10.1368 22.462 10.1368H16.9244C16.5741 10.1368 16.29 10.4208 16.29 10.7712C16.29 11.1215 16.5741 11.4055 16.9244 11.4055H22.4616C25.8579 11.4055 29.1405 12.3872 31.9649 14.2423C32.2946 17.0881 34.7177 19.3048 37.6504 19.3048ZM37.6504 9.12397C40.1076 9.12397 42.1066 11.123 42.1066 13.58C42.1066 16.0372 40.1076 18.036 37.6504 18.036C35.1931 18.036 33.1943 16.0372 33.1943 13.58C33.1943 11.123 35.1931 9.12397 37.6504 9.12397Z" fill="#558227"/>
<path d="M37.2182 16.062V16.8198C37.2182 17.0701 37.421 17.273 37.6713 17.273C37.9217 17.273 38.1245 17.0701 38.1245 16.8198V16.0408C38.697 15.8503 39.1116 15.3106 39.1116 14.6747V14.5845C39.1116 14.0871 38.848 13.6166 38.4239 13.3565L37.3204 12.6803C37.1633 12.584 37.0656 12.4095 37.0656 12.225C37.0656 11.9304 37.305 11.691 37.5996 11.691H37.6713C37.9659 11.691 38.2053 11.9306 38.2053 12.225V12.4651C38.2053 12.7154 38.4081 12.9182 38.6584 12.9182C38.9087 12.9182 39.1116 12.7154 39.1116 12.4651V12.225C39.1116 11.5815 38.6873 11.0354 38.1038 10.8513V10.22C38.1038 9.96966 37.901 9.76685 37.6507 9.76685C37.4004 9.76685 37.1976 9.96966 37.1976 10.22V10.8427C36.5985 11.0173 36.1592 11.5703 36.1592 12.2248C36.1592 12.7223 36.4227 13.1928 36.8468 13.4527L37.9501 14.129C38.1074 14.2254 38.2051 14.4 38.2051 14.5843V14.6746C38.2051 14.9691 37.9657 15.2085 37.6712 15.2085H37.5994C37.3049 15.2085 37.0654 14.9689 37.0654 14.6746V14.6468C37.0654 14.3965 36.8626 14.1937 36.6123 14.1937C36.362 14.1937 36.1592 14.3965 36.1592 14.6468V14.6746C36.1594 15.3367 36.6089 15.8942 37.2182 16.062Z" fill="#558227"/>
</svg>
