<svg width="44" height="36" viewBox="0 0 44 36" fill="none" xmlns="http://www.w3.org/2000/svg">
<circle opacity="0.1" cx="21" cy="16" r="16" fill="#558227"/>
<circle opacity="0.1" cx="2.5" cy="2.5" r="2.5" fill="#558227"/>
<path d="M36.7601 9.35529H36.326V8.81245C36.326 8.36204 35.9608 7.99683 35.5104 7.99683C35.06 7.99683 34.6947 8.36204 34.6947 8.81245V9.35529H24.3064V8.81245C24.3064 8.36204 23.9412 7.99683 23.4908 7.99683C23.0404 7.99683 22.6752 8.36204 22.6752 8.81245V9.35529H22.2438C19.1734 9.35529 16.6758 11.8529 16.6758 14.9233V29.436C16.6758 32.5064 19.1734 35.004 22.2438 35.004H36.7565C39.8268 35.004 42.3245 32.5064 42.3245 29.436V14.9197C42.3236 11.852 39.8277 9.35529 36.7601 9.35529ZM22.2438 10.9865H22.6752V11.5294C22.6752 11.9798 23.0404 12.345 23.4908 12.345C23.9412 12.345 24.3064 11.9798 24.3064 11.5294V10.9865H34.6929V11.5294C34.6929 11.9798 35.0582 12.345 35.5086 12.345C35.959 12.345 36.3242 11.9798 36.3242 11.5294V10.9865H36.7583C38.9269 10.9865 40.6905 12.751 40.6905 14.9197V16.83H18.3061V14.9233C18.307 12.7528 20.0733 10.9865 22.2438 10.9865ZM36.7565 33.3718H22.2438C20.0733 33.3718 18.307 31.6055 18.307 29.4351V18.4613H40.6914V29.4351C40.6923 31.6055 38.926 33.3718 36.7565 33.3718Z" fill="#558227"/>
<path d="M29.5002 20.8738C29.0498 20.8738 28.6846 21.239 28.6846 21.6894V26.4001C28.6846 26.8505 29.0498 27.2157 29.5002 27.2157C29.9506 27.2157 30.3158 26.8505 30.3158 26.4001V21.6894C30.3158 21.2381 29.9506 20.8738 29.5002 20.8738Z" fill="#558227"/>
<path d="M29.5002 28.6802C29.0498 28.6802 28.6846 29.0454 28.6846 29.4958V30.1447C28.6846 30.5951 29.0498 30.9603 29.5002 30.9603C29.9506 30.9603 30.3158 30.5951 30.3158 30.1447V29.4958C30.3158 29.0454 29.9506 28.6802 29.5002 28.6802Z" fill="#558227"/>
</svg>
