<svg width="45" height="36" viewBox="0 0 45 36" fill="none" xmlns="http://www.w3.org/2000/svg">
<circle opacity="0.1" cx="21.667" cy="16" r="16" fill="#558227"/>
<circle opacity="0.1" cx="3.16699" cy="2.5" r="2.5" fill="#558227"/>
<path d="M22.7354 31.0609H27.2213C27.4932 31.0609 27.6744 30.8796 27.6744 30.6078C27.6744 30.3359 27.4932 30.1546 27.2213 30.1546H22.7354C22.0557 30.1546 21.5119 29.6109 21.5119 28.9312V25.125L22.3275 25.9406C22.4182 26.0312 22.5541 26.0765 22.6447 26.0765C22.7354 26.0765 22.8713 26.0312 22.9619 25.9406C23.1432 25.7593 23.1432 25.4875 22.9619 25.3062L21.4213 23.7656C21.24 23.5843 20.9682 23.5843 20.7869 23.7656L19.2463 25.3062C19.065 25.4875 19.065 25.7593 19.2463 25.9406C19.4275 26.1218 19.6994 26.1218 19.8807 25.9406L20.651 25.1703V28.8859C20.6057 30.1093 21.5572 31.0609 22.7354 31.0609Z" fill="#558227"/>
<path d="M38.0514 17.0593C37.8701 16.878 37.5982 16.878 37.417 17.0593C37.2357 17.2405 37.2357 17.5124 37.417 17.6937L38.9576 19.2343C39.0482 19.3249 39.1389 19.3702 39.2748 19.3702C39.4107 19.3702 39.5014 19.3249 39.592 19.2343L41.1326 17.6937C41.3139 17.5124 41.3139 17.2405 41.1326 17.0593C40.9514 16.878 40.6795 16.878 40.4982 17.0593L39.7279 17.8296V14.0687C39.7279 12.8905 38.7764 11.939 37.5982 11.939H33.1123C32.8404 11.939 32.6592 12.1202 32.6592 12.3921C32.6592 12.664 32.8404 12.8452 33.1123 12.8452H37.5982C38.2779 12.8452 38.8217 13.389 38.8217 14.0687V17.8296L38.0514 17.0593Z" fill="#558227"/>
<path d="M18.0689 19.2344C19.4283 20.9563 21.4221 21.9531 23.5971 21.9531C25.9533 21.9531 28.1283 20.775 29.4424 18.8266C29.8049 18.3281 30.0768 17.7391 30.258 17.15C30.4846 16.425 30.6205 15.6547 30.6205 14.9297C30.6205 14.5672 30.5752 14.2047 30.5299 13.8422C30.3486 12.7547 29.8955 11.6672 29.2158 10.7609C28.7174 10.0813 28.0377 9.44688 27.2674 8.94844C26.7236 8.63125 26.1346 8.35937 25.5455 8.17812C24.9564 7.99687 24.2768 7.90625 23.5971 7.90625C23.5518 7.90625 23.4611 7.90625 23.4158 7.90625C23.0986 7.90625 22.7814 7.95156 22.4643 7.99688C21.8299 8.0875 21.1955 8.26875 20.6064 8.54063C18.1143 9.67344 16.5283 12.1656 16.5283 14.9297C16.5283 15.8812 16.7096 16.7875 17.0721 17.6484C17.3439 18.2375 17.6611 18.7812 18.0689 19.2344ZM21.0143 9.40156C21.5127 9.175 22.0564 8.99375 22.6455 8.90312C22.9174 8.85781 23.1893 8.8125 23.4611 8.8125C23.5064 8.8125 23.5064 8.8125 23.5518 8.8125H23.5971C24.1861 8.8125 24.7752 8.90312 25.3189 9.08437C25.8174 9.22031 26.3158 9.44687 26.7689 9.76406C27.4486 10.1719 28.0377 10.7156 28.4908 11.35C29.0799 12.1203 29.4424 13.0719 29.6236 14.0234C29.6689 14.3406 29.7143 14.6578 29.7143 14.975C29.7143 15.6547 29.6236 16.2891 29.3971 16.9234C29.2158 17.4219 28.9893 17.9203 28.6721 18.3734C27.5393 20.0953 25.6361 21.0922 23.5971 21.0922C21.6939 21.0922 19.9268 20.2312 18.7486 18.7359C18.4314 18.3281 18.1596 17.875 17.933 17.3312C17.6158 16.6062 17.4799 15.7906 17.4799 14.975C17.4799 12.5734 18.8846 10.3984 21.0143 9.40156Z" fill="#558227"/>
<path d="M31.2096 32.375C32.5689 34.0969 34.5627 35.0938 36.7377 35.0938C39.0939 35.0938 41.2689 33.9156 42.583 31.9672C42.9455 31.4234 43.2174 30.8797 43.3986 30.2906C43.6252 29.5656 43.7611 28.7953 43.7611 28.0703C43.7611 27.7078 43.7158 27.3 43.6705 26.9375C43.4893 25.85 43.0361 24.7625 42.3564 23.8563C41.858 23.1766 41.1783 22.5422 40.408 22.0438C39.8643 21.7266 39.2752 21.4547 38.6861 21.2734C38.0971 21.1375 37.4174 21.0469 36.7377 21.0469C36.6924 21.0469 36.6018 21.0469 36.5564 21.0469C36.2393 21.0469 35.9221 21.0922 35.6049 21.1375C34.9705 21.2281 34.3361 21.4094 33.7471 21.6813C31.2549 22.8141 29.6689 25.3063 29.6689 28.0703C29.6689 29.0219 29.8502 29.9281 30.2127 30.7891C30.4846 31.3781 30.8018 31.9219 31.2096 32.375ZM34.1549 22.5422C34.6533 22.3156 35.1971 22.1344 35.7861 22.0438C36.058 21.9984 36.3299 21.9531 36.6471 21.9531C36.6924 21.9531 36.6924 21.9531 36.7377 21.9531H36.783C37.3721 21.9531 37.9611 22.0437 38.5049 22.1797C39.0033 22.3156 39.5018 22.5422 39.9549 22.8594C40.6346 23.2672 41.2236 23.8109 41.6768 24.4453C42.2658 25.2156 42.6736 26.1672 42.8096 27.1188C42.8549 27.4359 42.9002 27.7531 42.9002 28.0703C42.9002 28.75 42.8096 29.3844 42.583 30.0187C42.4018 30.5172 42.1752 31.0156 41.858 31.4688C40.7252 33.1906 38.8221 34.1875 36.783 34.1875C34.8799 34.1875 33.1127 33.3266 31.9346 31.8312C31.6174 31.4234 31.3455 30.9703 31.1189 30.4266C30.8018 29.6562 30.6658 28.8859 30.6658 28.0703C30.6205 25.7141 32.0252 23.5391 34.1549 22.5422Z" fill="#558227"/>
<path d="M40.0002 26.575L36.3299 30.2453C36.2393 30.3359 36.1033 30.3812 36.0127 30.3812C35.8768 30.3812 35.7861 30.3359 35.6955 30.2453L33.4299 27.9797C33.2486 27.7984 33.2486 27.5266 33.4299 27.3453C33.6111 27.1641 33.883 27.1641 34.0643 27.3453L36.0127 29.2938L39.3658 25.9406C39.5471 25.7594 39.8189 25.7594 40.0002 25.9406C40.1814 26.1219 40.1814 26.3938 40.0002 26.575Z" fill="#558227"/>
<path d="M24.4127 16.6063H22.8268C22.6002 16.6063 22.4643 16.425 22.4643 16.2437C22.4643 15.9719 22.283 15.7906 22.0111 15.7906C21.7393 15.7906 21.558 15.9719 21.558 16.2437C21.558 16.9688 22.1471 17.5125 22.8268 17.5125H23.1893V17.875C23.1893 18.1469 23.3705 18.3281 23.6424 18.3281C23.9143 18.3281 24.0955 18.1469 24.0955 17.875V17.5125H24.458C25.183 17.5125 25.7268 16.9234 25.7268 16.2437V15.7906C25.7268 15.0656 25.1377 14.5219 24.458 14.5219H22.8721C22.6455 14.5219 22.5096 14.3406 22.5096 14.1594V13.7063C22.5096 13.4797 22.6908 13.3438 22.8721 13.3438H23.6424H24.4127C24.6393 13.3438 24.7752 13.525 24.7752 13.7063C24.7752 13.9781 24.9564 14.1594 25.2283 14.1594C25.5002 14.1594 25.6814 13.9781 25.6814 13.7063C25.6814 12.9813 25.0924 12.4375 24.4127 12.4375H24.0502V11.9844C24.0502 11.7125 23.8689 11.5312 23.5971 11.5312C23.3252 11.5312 23.1439 11.7125 23.1439 11.9844V12.3469H22.7814C22.0564 12.3469 21.5127 12.9359 21.5127 13.6156V14.0688C21.5127 14.7938 22.1018 15.3375 22.7814 15.3375H24.3674C24.5939 15.3375 24.7299 15.5188 24.7299 15.7V16.1531C24.7752 16.425 24.5939 16.6063 24.4127 16.6063Z" fill="#558227"/>
</svg>
