<svg width="30" height="29" viewBox="0 0 30 29" fill="none" xmlns="http://www.w3.org/2000/svg">
<g clip-path="url(#clip0_227_2684)">
<path d="M23.8954 25.0819H1.27116C1.11092 25.0819 0.957252 25.0182 0.843949 24.9049C0.730645 24.7916 0.666992 24.6379 0.666992 24.4777V11.528C0.666992 11.3678 0.730645 11.2141 0.843949 11.1008C0.957252 10.9875 1.11092 10.9238 1.27116 10.9238H23.8954C24.0556 10.9238 24.2093 10.9875 24.3226 11.1008C24.4359 11.2141 24.4996 11.3678 24.4996 11.528V24.4777C24.4996 24.6379 24.4359 24.7916 24.3226 24.9049C24.2093 25.0182 24.0556 25.0819 23.8954 25.0819ZM1.87533 23.8735H23.2912V12.1322H1.87533V23.8735Z" fill="#558227"/>
<path d="M20 23.2514H5.16955C5.00931 23.2514 4.85564 23.1878 4.74234 23.0745C4.62903 22.9612 4.56538 22.8075 4.56538 22.6473C4.5649 22.3257 4.43691 22.0175 4.20949 21.7902C3.98206 21.5629 3.67376 21.435 3.35221 21.4347C3.19198 21.4347 3.03831 21.371 2.925 21.2577C2.8117 21.1444 2.74805 20.9908 2.74805 20.8305V15.1761C2.74805 15.0159 2.8117 14.8622 2.925 14.7489C3.03831 14.6356 3.19198 14.572 3.35221 14.572C3.67382 14.5715 3.98211 14.4435 4.20952 14.2161C4.43693 13.9887 4.5649 13.6804 4.56538 13.3588C4.56538 13.1986 4.62903 13.0449 4.74234 12.9316C4.85564 12.8183 5.00931 12.7546 5.16955 12.7546H20C20.1603 12.7546 20.3139 12.8183 20.4272 12.9316C20.5405 13.0449 20.6042 13.1986 20.6042 13.3588C20.6045 13.6796 20.7318 13.9873 20.9582 14.2146C21.1846 14.4419 21.4917 14.5704 21.8125 14.572C21.9728 14.572 22.1264 14.6356 22.2397 14.7489C22.353 14.8622 22.4167 15.0159 22.4167 15.1761V20.8305C22.4167 20.9908 22.353 21.1444 22.2397 21.2577C22.1264 21.371 21.9728 21.4347 21.8125 21.4347C21.491 21.435 21.1828 21.5629 20.9555 21.7902C20.7281 22.0175 20.6003 22.3258 20.6 22.6473C20.6 22.8068 20.5369 22.9598 20.4245 23.073C20.3121 23.1862 20.1595 23.2503 20 23.2514ZM5.70001 22.0431H19.475C19.583 21.6248 19.8006 21.2428 20.1052 20.9364C20.4099 20.6301 20.7906 20.4104 21.2084 20.3001V15.7036C20.7896 15.5947 20.4074 15.3759 20.1014 15.0699C19.7954 14.7639 19.5767 14.3818 19.4678 13.963H5.69699C5.58819 14.3818 5.36948 14.764 5.06346 15.0701C4.75745 15.3761 4.37525 15.5948 3.95638 15.7036V20.3001C4.37549 20.4092 4.75783 20.6283 5.06385 20.9348C5.36987 21.2412 5.58845 21.6238 5.69699 22.0431H5.70001Z" fill="#558227"/>
<path d="M12.5837 21.3332C11.925 21.3333 11.281 21.1381 10.7333 20.7722C10.1855 20.4063 9.75859 19.8861 9.50648 19.2776C9.25437 18.669 9.18841 17.9993 9.31693 17.3533C9.44546 16.7072 9.7627 16.1138 10.2285 15.648C10.6944 15.1823 11.2878 14.8651 11.9339 14.7367C12.58 14.6083 13.2497 14.6744 13.8582 14.9266C14.4667 15.1789 14.9868 15.6059 15.3526 16.1537C15.7184 16.7015 15.9135 17.3455 15.9133 18.0042C15.9118 18.8868 15.5606 19.7328 14.9364 20.3568C14.3123 20.9808 13.4663 21.3319 12.5837 21.3332ZM12.5837 15.8818C12.164 15.8817 11.7538 16.006 11.4048 16.239C11.0558 16.4721 10.7837 16.8034 10.623 17.1911C10.4623 17.5787 10.4202 18.0054 10.5019 18.417C10.5837 18.8286 10.7856 19.2067 11.0823 19.5036C11.379 19.8004 11.757 20.0026 12.1686 20.0846C12.5801 20.1666 13.0068 20.1247 13.3945 19.9642C13.7823 19.8037 14.1138 19.5318 14.347 19.183C14.5803 18.8341 14.7048 18.4239 14.7049 18.0042C14.7046 17.4416 14.4811 16.9021 14.0834 16.5042C13.6857 16.1063 13.1463 15.8824 12.5837 15.8818Z" fill="#558227"/>
<path d="M25.3283 21.6218C25.1733 21.6219 25.0242 21.5623 24.9119 21.4555C24.7995 21.3486 24.7326 21.2027 24.7248 21.0479C24.717 20.8931 24.7691 20.7412 24.8702 20.6237C24.9712 20.5062 25.1136 20.432 25.2679 20.4165L25.9651 20.3434L24.7386 8.66669L5.28868 10.7088C5.12925 10.7255 4.96969 10.6782 4.84512 10.5773C4.72054 10.4764 4.64115 10.3302 4.6244 10.1708C4.60766 10.0113 4.65493 9.85177 4.75583 9.72719C4.85673 9.60262 5.00298 9.52322 5.16241 9.50648L25.2111 7.40156C25.29 7.39319 25.3699 7.40046 25.446 7.42296C25.5221 7.44545 25.5931 7.48274 25.6548 7.53268C25.7165 7.58261 25.7678 7.64423 25.8057 7.71399C25.8436 7.78376 25.8674 7.86031 25.8757 7.93927L27.2284 20.8183C27.2368 20.8972 27.2295 20.9771 27.207 21.0532C27.1845 21.1293 27.1472 21.2003 27.0973 21.262C27.0473 21.3238 26.9857 21.375 26.916 21.4129C26.8462 21.4508 26.7696 21.4746 26.6907 21.4829L25.3923 21.6194C25.3706 21.6206 25.3494 21.6218 25.3283 21.6218Z" fill="#558227"/>
<path d="M28.0761 18.0331C27.9258 18.033 27.781 17.9769 27.6699 17.8757C27.5588 17.7745 27.4893 17.6356 27.4751 17.486C27.461 17.3364 27.503 17.1869 27.5931 17.0667C27.6832 16.9464 27.8149 16.864 27.9625 16.8357L28.3558 16.7601L26.1433 5.22902L7.20816 8.86127C7.05057 8.89147 6.88743 8.85784 6.75464 8.76776C6.62185 8.67769 6.53028 8.53855 6.50008 8.38096C6.46987 8.22337 6.50351 8.06023 6.59358 7.92744C6.68366 7.79465 6.8228 7.70308 6.98039 7.67287L26.5095 3.92704C26.6667 3.89693 26.8295 3.93048 26.9621 4.02031C27.0946 4.11015 27.1861 4.24892 27.2163 4.40615L29.656 17.1245C29.6861 17.2818 29.6524 17.4447 29.5625 17.5772C29.4725 17.7098 29.3336 17.8012 29.1763 17.8313L28.1903 18.0204C28.1527 18.0282 28.1145 18.0324 28.0761 18.0331Z" fill="#558227"/>
</g>
<defs>
<clipPath id="clip0_227_2684">
<rect width="29" height="29" fill="white" transform="translate(0.666992)"/>
</clipPath>
</defs>
</svg>
