<svg width="44" height="36" viewBox="0 0 44 36" fill="none" xmlns="http://www.w3.org/2000/svg">
<circle opacity="0.1" cx="21" cy="16" r="16" fill="#558227"/>
<circle opacity="0.1" cx="2.5" cy="2.5" r="2.5" fill="#558227"/>
<g clip-path="url(#clip0_70_502)">
<path d="M31.0242 19.2873C31.4356 19.2873 31.7702 19.5675 31.7702 19.9119C31.7702 20.2247 32.0238 20.4783 32.3366 20.4783C32.6494 20.4783 32.903 20.2247 32.903 19.9119C32.903 19.1274 32.3506 18.4615 31.5907 18.2362V18.1575C31.5907 17.8447 31.337 17.5911 31.0242 17.5911C30.7114 17.5911 30.4578 17.8447 30.4578 18.1575V18.2362C29.6978 18.4615 29.1455 19.1274 29.1455 19.9119C29.1455 20.8809 29.9883 21.6693 31.0242 21.6693C31.4356 21.6693 31.7702 21.9495 31.7702 22.2939C31.7702 22.6383 31.4356 22.9184 31.0242 22.9184C30.6129 22.9184 30.2784 22.6383 30.2784 22.2939C30.2784 21.9811 30.0247 21.7274 29.7119 21.7274C29.3992 21.7274 29.1455 21.9811 29.1455 22.2939C29.1455 23.0783 29.6978 23.7442 30.4578 23.9695V24.0482C30.4578 24.361 30.7114 24.6146 31.0242 24.6146C31.337 24.6146 31.5907 24.361 31.5907 24.0482V23.9695C32.3506 23.7442 32.903 23.0783 32.903 22.2939C32.903 21.3248 32.0602 20.5364 31.0242 20.5364C30.6129 20.5364 30.2784 20.2563 30.2784 19.9119C30.2784 19.5675 30.6129 19.2873 31.0242 19.2873Z" fill="#558227"/>
<path d="M43.9148 25.9211C43.6927 25.151 43.0677 24.5691 42.2837 24.4024C41.7817 24.2955 41.2596 24.3735 40.8137 24.6105C41.0719 23.005 40.9363 21.3441 40.405 19.796C40.3035 19.5001 39.9812 19.3428 39.6854 19.4441C39.3895 19.5457 39.2319 19.8679 39.3335 20.1638C39.9609 21.992 39.966 23.9976 39.3513 25.8281L34.8374 29.8371C34.5589 30.0844 34.2535 30.294 33.9289 30.4643C34.0206 30.093 34.0144 29.6999 33.9042 29.3264C33.7301 28.7365 33.3121 28.2459 32.7575 27.9802L28.7587 26.0649C27.0105 25.2276 24.9644 25.1307 23.1449 25.7987L22.7384 25.948C21.6102 22.7609 22.3955 19.2263 24.8116 16.8104L28.8104 12.8116H33.2374L36.6256 16.1997C36.8468 16.4209 37.2054 16.4209 37.4267 16.1997C37.6479 15.9786 37.6479 15.6199 37.4267 15.3987L34.1894 12.1615L35.3596 8.79363C35.5165 8.34213 35.3433 7.84957 34.9383 7.5957C34.5334 7.34188 34.0144 7.40073 33.6765 7.73855L33.6695 7.74551C33.4354 7.97973 33.0543 7.97973 32.8202 7.74551C31.8261 6.7515 30.2086 6.7515 29.2145 7.74551C29.1011 7.85897 28.9503 7.92139 28.7898 7.92139C28.6294 7.92139 28.4786 7.85891 28.3652 7.74551C28.0269 7.40719 27.5076 7.34862 27.1024 7.60323C26.6972 7.85778 26.5247 8.35102 26.6827 8.80269L27.8581 12.1618L24.0105 16.0094C22.5866 17.4334 21.64 19.2287 21.2733 21.2013C20.9517 22.9311 21.091 24.695 21.6741 26.3389L20.7812 26.6667C20.484 26.2804 20.0176 26.0307 19.4937 26.0307H16.6238C15.7284 26.0308 15 26.7592 15 27.6545V34.376C15 35.2714 15.7284 35.9998 16.6238 35.9998H31.5527C33.8976 35.9998 36.1151 35.0998 37.7966 33.4655L43.343 28.0751C43.9178 27.5166 44.1368 26.6912 43.9148 25.9211ZM28.7898 9.0543C29.2528 9.0543 29.6881 8.874 30.0155 8.54661C30.5679 7.99423 31.4667 7.99423 32.0191 8.54661C32.3465 8.874 32.7818 9.0543 33.2448 9.0543C33.5736 9.0543 33.8883 8.96344 34.1604 8.79351L33.1578 11.6788H28.8893L27.8812 8.79782C28.1517 8.96491 28.4638 9.0543 28.7898 9.0543ZM16.1329 34.3761V27.6545C16.1329 27.3838 16.3531 27.1636 16.6238 27.1636H19.4936C19.7643 27.1636 19.9845 27.3838 19.9845 27.6545V34.376C19.9845 34.6467 19.7643 34.867 19.4936 34.867H16.6238C16.3531 34.867 16.1329 34.6468 16.1329 34.3761ZM42.5535 27.2628L37.0071 32.6532C35.5381 34.0808 33.6011 34.867 31.5527 34.867H21.0413C21.0906 34.712 21.1174 34.5472 21.1174 34.3761V27.7501L23.5353 26.8623C25.0696 26.299 26.7952 26.3807 28.2694 27.0868L32.2681 29.002C32.5378 29.1312 32.733 29.3603 32.8176 29.6471C32.9022 29.934 32.8627 30.2324 32.7063 30.4873C32.4551 30.8968 31.9597 31.081 31.5019 30.9356L26.1897 29.2463C25.8916 29.1516 25.5731 29.3163 25.4782 29.6145C25.3834 29.9126 25.5482 30.2311 25.8464 30.3259L31.1586 32.0152C31.3774 32.0847 31.6002 32.1182 31.8202 32.1182C31.8467 32.1182 31.8731 32.1166 31.8995 32.1156C33.2618 32.096 34.5694 31.5903 35.5896 30.6842L41.1466 25.7487C41.3911 25.5316 41.7282 25.4426 42.0479 25.5105C42.4276 25.5913 42.7185 25.8622 42.8261 26.2352C42.9338 26.608 42.8319 26.9922 42.5535 27.2628Z" fill="#558227"/>
<path d="M38.7188 18.2712C38.8677 18.2712 39.0138 18.2112 39.1191 18.1053C39.2245 17.9999 39.2852 17.8543 39.2852 17.7048C39.2852 17.5559 39.2246 17.4103 39.1191 17.3044C39.0138 17.1991 38.8677 17.1384 38.7188 17.1384C38.5697 17.1384 38.4242 17.199 38.3183 17.3044C38.2129 17.4103 38.1523 17.5559 38.1523 17.7048C38.1523 17.8544 38.2129 17.9999 38.3183 18.1053C38.4236 18.2113 38.5697 18.2712 38.7188 18.2712Z" fill="#558227"/>
</g>
<defs>
<clipPath id="clip0_70_502">
<rect width="29" height="29" fill="white" transform="translate(15 7)"/>
</clipPath>
</defs>
</svg>
