<svg width="158" height="60" viewBox="0 0 158 60" fill="none" xmlns="http://www.w3.org/2000/svg">
<g clip-path="url(#clip0_1_8)">
<path d="M70.9957 46.3267C65.893 46.3267 62.4229 43.3666 62.4229 38.0265V35.6795C62.4229 30.2999 65.8269 27.3398 71.0684 27.3398C76.1315 27.3398 79.3571 30.445 79.3571 36.0026V38.3825H68.2527C68.2857 38.8177 68.3584 39.1737 68.4311 39.5363C68.8277 40.8746 69.806 41.5932 71.3262 41.5932C72.701 41.5932 73.3158 40.9801 73.6793 40.3999H79.2513C78.5573 44.0522 75.5895 46.3267 70.9957 46.3267ZM73.9239 34.9939C73.7454 32.9699 72.9126 31.9613 71.1015 31.9613C69.2904 31.9613 68.3849 33.115 68.2461 34.9939H73.9239Z" fill="#375515"/>
<path d="M82.7544 39.0353V33.9854H93.2441V39.0353H82.7544Z" fill="#375515"/>
<path d="M110.139 41.5273H101.46L100.085 45.9641H94.1167L102.875 20.701H108.916L117.674 45.9641H111.52L110.139 41.5273ZM105.763 27.564L102.941 36.6223H108.585L105.763 27.564Z" fill="#375515"/>
<path d="M117.846 47.4804H123.418C123.742 48.0936 124.356 48.6342 126.346 48.6342C128.553 48.6342 129.677 47.4804 129.677 45.0609V43.2545C128.699 45.0939 126.961 45.9641 124.72 45.9641C120.886 45.9641 117.773 43.004 117.773 37.6639V35.6795C117.773 30.2999 120.886 27.3398 124.72 27.3398C127.146 27.3398 128.772 28.3485 129.677 30.0824V27.7024H135.322V45.0609C135.322 50.6911 131.739 53.5391 126.604 53.5391C121.283 53.5457 118.355 51.0207 117.846 47.4804ZM123.563 36.0026V37.3013C123.563 39.6088 124.502 41.0526 126.604 41.0526C128.52 41.0526 129.677 39.8263 129.677 37.4068V35.8905C129.677 33.6556 128.448 32.2448 126.458 32.2448C124.502 32.2513 123.563 33.7347 123.563 36.0026Z" fill="#375515"/>
<path d="M144.219 45.9641H138.574V27.7024H144.219V30.735C145.448 28.4606 147.114 27.3398 149.355 27.3398H150.188V32.9699H148.958C146.209 32.9699 144.219 34.1237 144.219 37.2288V45.9641Z" fill="#375515"/>
<path d="M151.271 22.0789C151.271 20.2725 152.613 19.0858 154.636 19.0858C156.665 19.0858 158 20.2791 158 22.0789C158 23.8787 156.658 25.072 154.636 25.072C152.613 25.072 151.271 23.8787 151.271 22.0789ZM151.813 27.7091H157.458V45.9708H151.813V27.7091Z" fill="#375515"/>
<path d="M31.7267 13.8644C31.3235 4.81925 23.3257 0 23.3257 0C16.5374 4.4171 14.4025 9.44072 14.4025 13.8644C14.4025 18.2881 16.8217 20.6944 17.8263 21.6965C18.831 22.6986 22.0566 26.1136 22.0566 26.1136V32.4756C21.5807 31.9613 20.7809 31.1306 20.2455 30.7285C19.4391 30.1286 19.644 28.9221 19.644 28.9221C17.6214 17.075 6.54346 18.2815 6.54346 18.2815C6.54346 27.3201 13.3912 31.3416 17.4231 31.3416C20.1199 31.3416 21.4617 34.4072 22.0566 36.4312V39.7802L24.0726 41.3889V26.1136C24.0726 26.1136 26.69 23.7007 29.3075 20.6878C31.925 17.6816 31.7267 13.8644 31.7267 13.8644ZM11.1439 23.1337C11.1439 23.1337 12.3799 23.9183 14.376 25.7906C14.0455 24.894 13.6886 23.5952 13.6093 22.0657C13.6093 22.0657 14.2571 23.437 14.7858 26.1861C15.5724 26.9443 16.4515 27.8475 17.4165 28.9287C17.4231 28.9287 13.9332 27.0761 11.1439 23.1337ZM24.099 14.2666C23.1208 16.6795 23.2662 24.716 23.2662 24.716L23.2596 24.7028C22.8828 23.826 22.6449 22.903 22.5193 21.9602C21.6666 15.4137 18.8376 12.0646 18.8376 12.0646C20.0472 12.6645 22.202 15.4994 22.202 15.4994L23.2596 6.27623L23.7685 12.9942C26.2868 10.3044 26.8883 10.6604 26.8883 10.6604C26.8883 10.6604 25.0773 11.8536 24.099 14.2666Z" fill="url(#paint0_linear_1_8)"/>
<path d="M39.639 13.5614C38.1386 13.5614 36.9224 14.7744 36.9224 16.271C36.9224 16.8182 37.0877 17.3192 37.3653 17.7477L27.6225 27.6631C27.477 27.8148 27.3911 28.0125 27.3911 28.2235V39.0751C27.3911 39.1344 27.3977 39.1937 27.4109 39.2465C27.9463 39.0355 28.4751 38.8311 29.0039 38.6465V28.5597L38.6079 18.7828C38.9252 18.9146 39.2755 18.9872 39.639 18.9872C41.1394 18.9872 42.3622 17.7675 42.3622 16.2776C42.3622 14.7744 41.1394 13.5614 39.639 13.5614ZM39.639 17.3785C39.0309 17.3785 38.5352 16.8841 38.5352 16.2776C38.5352 15.671 39.0309 15.1766 39.639 15.1766C40.2537 15.1766 40.7495 15.671 40.7495 16.2776C40.7495 16.8841 40.2537 17.3785 39.639 17.3785Z" fill="#375515"/>
<path d="M45.515 26.9775C44.2988 26.9775 43.261 27.7818 42.9173 28.8894H40.1082C39.8966 28.8894 39.6917 28.9751 39.5397 29.1268L36.8429 31.8166C36.6909 31.9682 36.605 32.1726 36.605 32.3835V36.3128C37.1602 36.1743 37.7022 36.0359 38.2112 35.9172V32.7132L40.4386 30.4914H42.9173C43.261 31.5924 44.2988 32.4033 45.515 32.4033C47.0154 32.4033 48.2316 31.1837 48.2316 29.6937C48.2316 28.1972 47.0154 26.9775 45.515 26.9775ZM45.515 30.7947C44.9069 30.7947 44.4111 30.3003 44.4111 29.6937C44.4111 29.0872 44.9069 28.5862 45.515 28.5862C46.1231 28.5862 46.6188 29.0872 46.6188 29.6937C46.6254 30.3003 46.1231 30.7947 45.515 30.7947Z" fill="#375515"/>
<path d="M50.6971 19.1651C49.2231 19.1651 47.9804 20.2067 47.6764 21.5912H40.8287C40.6172 21.5912 40.4123 21.6769 40.2602 21.8285L32.2492 29.8189C32.0972 29.9705 32.0112 30.1749 32.0112 30.3858V37.618C32.5598 37.4466 33.0952 37.2818 33.624 37.1302V30.7221L41.1658 23.1998H47.7293C47.7359 23.1998 47.7425 23.1998 47.7491 23.1998C48.1457 24.4458 49.3222 25.349 50.6971 25.349C52.409 25.349 53.797 23.9646 53.797 22.2637C53.7904 20.5561 52.4024 19.1651 50.6971 19.1651ZM50.6971 23.7404C49.8774 23.7404 49.2099 23.0746 49.2099 22.2571C49.2099 21.4396 49.8774 20.7737 50.6971 20.7737C51.5167 20.7737 52.1843 21.4396 52.1843 22.2571C52.1843 23.0746 51.5167 23.7404 50.6971 23.7404Z" fill="#375515"/>
<path d="M46.1757 17.1147C46.8433 17.0949 47.372 16.5411 47.3456 15.8819C47.2332 11.9131 43.9085 8.76837 39.9228 8.88045C39.2552 8.90022 38.7265 9.45401 38.7529 10.1133C38.7793 10.7725 39.328 11.3066 39.9889 11.2802C42.6461 11.2077 44.8669 13.3041 44.9396 15.9478C44.9463 16.2774 45.0917 16.5807 45.3164 16.7851C45.5345 16.996 45.8452 17.1279 46.1757 17.1147Z" fill="#375515"/>
<path d="M51.7608 17.2464C52.4218 17.2464 52.9638 16.7058 52.9572 16.0399C52.9572 15.9411 52.9572 15.829 52.9572 15.7301C52.8647 12.3151 51.437 9.13081 48.9517 6.78382C46.4598 4.43682 43.2012 3.19081 39.7773 3.2831C39.6782 3.2831 39.5658 3.29629 39.4667 3.29629C38.8057 3.32925 38.2901 3.89622 38.3298 4.55549C38.3628 5.21476 38.9313 5.72899 39.5922 5.68943L39.85 5.67625C42.6394 5.59714 45.2833 6.60582 47.3059 8.51769C49.3284 10.4296 50.4918 13.0073 50.5645 15.796L50.5711 16.0465C50.5711 16.3894 50.7165 16.6926 50.9478 16.9102C51.166 17.1146 51.4634 17.2398 51.7807 17.2464H51.7608Z" fill="#375515"/>
<path d="M45.7264 37.4662L45.4884 39.3056C45.4884 39.3188 45.4884 39.3254 45.4818 39.3386L45.3165 40.5978L44.9596 43.3337L43.9021 45.2061L41.2581 49.9C33.69 60.1846 18.6593 61.5559 9.22057 54.0205L4.38222 48.5156L4.369 48.5024L4.36239 48.4826L1.4607 40.9472L0.740234 39.0814L0.945137 33.5832C0.945137 33.5832 1.03767 33.6029 1.20292 33.6359C2.82892 33.9589 11.5009 35.6533 11.7125 35.7192C11.9438 35.7917 21.561 40.3472 21.561 40.3472L25.1303 43.103L32.1102 40.9736C32.1102 40.9736 39.6189 38.2112 39.7247 38.1717C39.8106 38.1387 44.4705 37.6047 45.5148 37.486C45.6536 37.4728 45.7264 37.4662 45.7264 37.4662Z" fill="url(#paint1_linear_1_8)"/>
<path d="M44.3119 36.6885C44.2723 36.6951 44.2326 36.6951 44.1929 36.6951C44.1665 36.6951 44.1401 36.7016 44.1202 36.7016C43.6377 36.728 43.0296 36.7742 42.329 36.8533C42.1571 36.8731 41.9985 36.8862 41.8597 36.906C41.7936 36.9126 41.7209 36.9258 41.6548 36.9324C41.5689 36.9456 41.4829 36.9522 41.397 36.9654C41.3441 36.9719 41.2912 36.9851 41.2384 36.9851C41.2185 36.9851 41.2053 36.9851 41.1921 36.9917C41.1392 36.9983 41.093 37.0115 41.0401 37.0115C40.9541 37.0247 40.9013 37.0313 40.8881 37.0313H40.8814C38.7928 37.3345 36.1224 37.8883 33.148 38.8772C30.9536 39.609 28.4352 40.6309 25.7979 42.0747C18.7585 35.8248 9.875 33.636 4.97055 32.8779C4.97055 32.8779 4.93089 32.8713 4.84496 32.8581C4.59379 32.8252 4.35584 32.7922 4.13111 32.7526C4.02535 32.7394 3.91298 32.7197 3.7874 32.7065C2.94796 32.6076 1.67888 32.4889 0.00660977 32.4296C0.00660977 32.4296 0.00660977 32.4296 0 32.4296V39.1146C0 39.1475 0.0330488 39.9255 0.27761 41.1649C0.389977 41.7516 0.528782 42.345 0.694026 42.9383C1.30212 45.1535 2.19444 47.2302 3.32472 49.1025C3.33793 49.1223 3.35115 49.1486 3.36437 49.1684C4.72599 51.3967 6.44453 53.3482 8.46051 54.9502C12.5652 58.2202 17.8001 59.9936 23.2003 59.9936C24.2711 59.9936 25.3617 59.9277 26.4391 59.7826C32.8836 58.9322 38.4953 55.6688 42.2232 50.599C43.3337 49.0893 44.2723 47.4279 45.0059 45.6611C45.3298 44.8964 45.6206 44.0723 45.885 43.2086C46.0965 42.5164 46.2816 41.7846 46.4469 41.033C46.4469 41.0199 46.4469 41.0133 46.4535 41.0001L46.4667 40.9407C46.4733 40.8946 46.4865 40.855 46.4931 40.8221C46.5791 40.3935 46.6385 39.9452 46.6716 39.4838C46.6782 39.431 46.6782 39.3915 46.6848 39.3585C46.7046 39.0355 46.7179 38.7454 46.7179 38.4619V36.5698C45.8123 36.6028 45.0059 36.6423 44.3119 36.6885ZM2.41918 34.9941C5.82982 35.3501 15.8965 36.906 23.5969 43.3668C22.3741 44.125 21.1447 44.9821 19.9152 45.9314C14.0392 40.1298 5.35392 37.7631 2.41918 37.0972V34.9941ZM3.19252 42.879C3.13303 42.6878 3.07354 42.4966 3.02067 42.3054C2.87525 41.7714 2.74967 41.2374 2.64391 40.7166C2.55798 40.2617 2.49849 39.8859 2.46544 39.6024C5.59187 40.3804 12.9948 42.6351 18.0315 47.4807C17.0003 48.3839 15.9758 49.3596 14.9711 50.421C9.875 45.4963 4.81191 43.446 3.19252 42.879ZM11.7059 54.3107C11.1044 53.9283 10.5294 53.5196 9.97415 53.0713C8.16968 51.6341 6.63621 49.887 5.4134 47.8828C5.40018 47.8631 5.40018 47.8631 5.39357 47.8499C5.38696 47.8367 5.38035 47.8301 5.37374 47.8169C5.01682 47.2302 4.69294 46.6104 4.3955 45.9775C6.58994 47.006 9.98736 48.9377 13.3782 52.2142C12.8031 52.8867 12.2479 53.5855 11.7059 54.3107ZM31.6278 55.9325C34.5361 53.5987 37.1601 51.7923 39.229 50.4804C37.1535 52.8669 34.5625 54.7129 31.6278 55.9325ZM42.7851 44.7381C42.6132 45.1403 42.4413 45.5358 42.2497 45.9248C40.2998 46.9467 33.6966 50.6452 26.1879 57.3895C26.1681 57.3895 26.1549 57.3961 26.135 57.3961C24.357 57.6334 22.5658 57.6466 20.8208 57.4554C29.1821 47.4939 39.1431 44.4744 43.2213 43.6174C43.0759 44.0063 42.9305 44.3821 42.7851 44.7381ZM44.2789 39.1937C44.2789 39.2135 44.2789 39.2332 44.2723 39.2464C44.2458 39.6288 44.1929 40.0046 44.1268 40.3738L44.1136 40.4265C44.107 40.4661 44.1004 40.499 44.0938 40.5386C44.0607 40.7034 44.0145 40.8682 43.9748 41.0264C40.5906 41.5802 28.0056 44.4349 18.0843 56.9807C16.617 56.6313 15.1893 56.1303 13.8409 55.4842C20.2193 47.1049 28.1444 43.0965 33.8222 41.1979C38.4887 39.6354 42.4017 39.2201 44.2921 39.108C44.2855 39.1409 44.2855 39.1673 44.2789 39.1937Z" fill="#375515"/>
</g>
<defs>
<linearGradient id="paint0_linear_1_8" x1="19.1371" y1="40.7539" x2="19.1371" y2="8.66153" gradientUnits="userSpaceOnUse">
<stop stop-color="#375515"/>
<stop offset="1" stop-color="#558227"/>
</linearGradient>
<linearGradient id="paint1_linear_1_8" x1="23.235" y1="62.4665" x2="23.235" y2="35.9031" gradientUnits="userSpaceOnUse">
<stop stop-color="#558227"/>
<stop offset="1" stop-color="#C1CD67"/>
</linearGradient>
<clipPath id="clip0_1_8">
<rect width="158" height="60" fill="white"/>
</clipPath>
</defs>
</svg>
